<svg width="500" height="500" viewBox="0 0 500 500" fill="none" xmlns="http://www.w3.org/2000/svg">
<path d="M336.962 63.6924L456.322 132.592V368.613L251.934 486.592L213.467 464.358V373.223L251.932 395.413L377.344 322.998V178.204L342.438 158.039V223.816L268.419 181.027V115.309L251.936 105.793L126.512 178.206V323.01L183.453 355.847L183.496 447.07L47.6169 368.613L47.5825 132.609L251.938 14.6316L336.962 63.6924ZM69.6029 145.321L69.6334 355.9L161.459 408.919L161.438 368.569L104.494 335.732V165.493L251.938 80.3684L290.44 102.597V168.322L320.419 185.652V119.891L399.364 165.495V335.713L251.94 420.836L235.487 411.345V451.653L251.94 461.163L434.303 355.896V145.306L325.956 82.764L273.928 52.7538L273.924 52.7519L251.936 40.0566L69.6029 145.321Z" fill="white"/>
<path d="M399.359 165.495V335.712L251.934 420.837L213.463 398.643V307.48L251.913 329.674L320.414 290.115V119.89L399.359 165.495ZM342.432 302.826L251.917 355.101L235.481 345.613V385.923L251.928 395.412L377.34 322.998V178.204L342.432 158.039V302.826Z" fill="white"/>
<path d="M290.436 102.596V193.718L251.925 171.541L183.437 211.088L183.455 381.268L104.492 335.732V165.493L251.934 80.3682L290.436 102.596ZM126.511 178.206V323.01L161.43 343.147L161.417 198.378L251.911 146.124L268.417 155.628V115.309L251.932 105.793L126.511 178.206Z" fill="white"/>
</svg>
