<svg width="90" height="26" viewBox="0 0 90 26" fill="none" xmlns="http://www.w3.org/2000/svg">
<path d="M22.9018 7.3022V18.7866L12.9568 24.5271L11.5446 23.7108V20.3308L12.9568 21.1455L19.9725 17.0945V8.99423L17.0449 7.30303V10.6854L14.3707 9.1395V5.75956L12.9568 4.94326L5.94023 8.99423V17.0954L8.86868 18.7841L8.87033 22.1673L3.01508 18.7866L3.01343 7.30303L12.9568 1.5625L14.3707 2.3788L17.0466 3.92227L22.9018 7.3022Z" stroke="white" stroke-width="1.13242" stroke-miterlimit="10"/>
<path d="M17.0445 10.6854V7.30298L19.9722 8.99418V17.0945L12.9564 21.1454L11.5442 20.3308V16.95L12.9556 17.7647L17.0445 15.4033V10.6854Z" stroke="white" stroke-width="1.13242" stroke-miterlimit="10"/>
<path d="M14.3706 5.75966V9.1396L12.9559 8.32495L8.86781 10.6855L8.86864 18.7842L5.94019 17.0955V8.99433L12.9568 4.94336L14.3706 5.75966Z" stroke="white" stroke-width="1.13242" stroke-miterlimit="10"/>
<path d="M65.6918 6.89285L64.064 6.88572C63.967 6.88572 63.8899 6.80725 63.8899 6.71024V5.93128C63.8899 5.73726 63.733 5.58032 63.539 5.58032H60.9724C60.7784 5.58032 60.6215 5.73726 60.6215 5.93128V6.72308C60.6215 6.82009 60.543 6.89856 60.446 6.89856H58.861C58.6669 6.89856 58.51 7.05549 58.51 7.24952V9.26396C58.51 9.45799 58.6669 9.61492 58.861 9.61492H60.4474C60.5444 9.61492 60.6229 9.69339 60.6229 9.78897L60.6514 15.9407C60.6586 17.3631 61.8127 18.5116 63.2351 18.5116H65.094C65.6176 18.5116 66.0428 18.0864 66.0428 17.5628V16.2089C66.0428 16.0149 65.8858 15.858 65.6918 15.858H64.5077C64.1796 15.858 63.9128 15.5926 63.9113 15.2645L63.8914 9.7904C63.8914 9.69339 63.9698 9.61492 64.0669 9.61492H65.6918C65.8858 9.61492 66.0428 9.45799 66.0428 9.26396V7.24239C66.0428 7.04979 65.8873 6.89285 65.6932 6.89142L65.6918 6.89285Z" fill="white"/>
<path d="M79.8143 9.51504H83.2411C83.2482 9.51504 83.2582 9.51504 83.2654 9.51504H83.3724C83.3724 9.51504 83.3766 9.51504 83.3795 9.51504C83.8688 9.51504 84.314 9.23256 84.5208 8.78887L85.1785 7.38361C85.2869 7.15106 85.1172 6.88428 84.8604 6.88428H76.8283C76.6342 6.88428 76.4759 7.04121 76.4773 7.23523C76.4802 7.92574 76.4859 9.40661 76.4787 9.56497C76.483 9.57353 76.4787 9.60064 76.483 9.64059C76.4873 9.77469 76.4958 10.0443 76.7213 10.371C76.9053 10.635 77.1464 10.8104 77.2234 10.8647C77.2548 10.8875 77.2819 10.9046 77.2905 10.9146C77.9268 11.3269 81.3379 14.1289 81.706 14.37C81.7103 14.3742 81.7189 14.3828 81.7374 14.3928C81.8087 14.4427 81.9443 14.5369 82.0284 14.671C82.1183 14.8051 82.1226 14.9306 82.1269 15.0077V15.0391C82.1226 15.3173 82.1269 15.5769 82.1312 15.6796V15.6982C82.1269 15.7067 82.1269 15.7567 82.0955 15.7966C82.0769 15.8152 82.0598 15.828 82.037 15.8366H79.3306C79.2336 15.8366 79.1551 15.7581 79.1551 15.6611V15.2188C79.1551 15.0248 78.9982 14.8679 78.8042 14.8679H76.8382C76.6442 14.8679 76.4873 15.0248 76.4873 15.2188V18.152C76.4873 18.3461 76.6428 18.503 76.8368 18.503C78.2378 18.4987 83.3823 18.483 83.672 18.4859H83.8332C84.468 18.4402 84.7191 18.2105 84.8375 17.6427V17.132C84.829 16.8723 84.819 16.46 84.819 15.8366C84.8147 15.4243 84.8147 14.9221 84.8147 14.3029L84.8104 14.2173C84.8147 14.136 84.8019 13.8949 84.595 13.581C84.4195 13.3171 84.1998 13.1459 84.1014 13.0788L84.0343 13.0289L79.6102 9.70764V9.51504C79.6802 9.51504 79.7444 9.51504 79.8128 9.51504H79.8143Z" fill="white"/>
<path d="M47.8471 9.71618V9.56353C47.84 8.82024 47.3606 7.9885 46.6316 7.45208C46.0381 7.01552 45.4746 6.9185 45.2777 6.89282H42.4886C42.0192 6.90566 40.9506 6.99839 40.1745 7.74739C39.5297 8.36941 39.3941 9.1498 39.3613 9.56353H43.9495C44.1007 9.55497 44.279 9.62488 44.4131 9.749C44.5373 9.86313 44.5786 9.98011 44.59 10.0172V10.1085V10.1699V10.2469C44.5772 10.3182 44.5401 10.4438 44.4188 10.5379C44.2505 10.6706 44.0222 10.6621 43.9338 10.6535H41.7752C41.4314 10.6506 40.748 10.692 40.1802 11.0943C39.5425 11.5466 39.4056 12.2057 39.3685 12.501V12.6309L39.3813 16.4029V16.4828C39.3913 16.9836 39.7094 17.5557 40.2173 17.9694C40.7737 18.4245 41.3244 18.4987 41.4357 18.513H46.6658C46.8385 18.5158 47.2465 18.4987 47.5475 18.2333C47.7972 18.0151 47.8542 17.7326 47.8714 17.5842V17.4544L47.8471 9.71761V9.71618ZM44.6057 15.5227C44.6057 15.7167 44.4488 15.8737 44.2548 15.8737H42.8581C42.664 15.8737 42.5071 15.7167 42.5071 15.5227V13.6466C42.5071 13.4526 42.664 13.2957 42.8581 13.2957H44.2548C44.4488 13.2957 44.6057 13.4526 44.6057 13.6466V15.5227Z" fill="white"/>
<path d="M35.6989 6.95996H29.6913C29.4972 6.95996 29.3403 7.11689 29.3403 7.31092V9.2469H29.3389L29.336 12.183L29.3332 15.1205L29.3303 17.7855V19.9811C29.3289 20.2193 29.6299 20.4933 29.8939 20.4961L31.6116 20.5104C32.0224 20.5132 32.2864 20.2778 32.2864 19.9083V18.7057C32.2864 18.5787 32.3777 18.4974 32.5175 18.4974H36.9829C37.7348 18.4974 38.2156 18.0622 38.2156 17.3817L38.2198 12.4483L38.2227 9.24975C38.2227 8.18403 36.8731 6.96139 35.6975 6.96139L35.6989 6.95996ZM35.2638 15.2574C35.2638 15.4514 35.1069 15.6084 34.9129 15.6084H32.6445C32.4504 15.6084 32.2935 15.4514 32.2935 15.2574V9.91315C32.2935 9.71912 32.4504 9.56219 32.6445 9.56219H34.9129C35.1069 9.56219 35.2638 9.71912 35.2638 9.91315V15.2574Z" fill="white"/>
<path d="M75.363 9.71618V9.56353C75.3558 8.82024 74.8765 7.9885 74.1475 7.45208C73.554 7.01552 72.9904 6.9185 72.7936 6.89282H70.0044C69.5351 6.90566 68.4665 6.99839 67.6904 7.74739C67.0455 8.36941 66.91 9.1498 66.8772 9.56353H71.4653C71.6166 9.55497 71.7949 9.62488 71.929 9.749C72.0531 9.86313 72.0945 9.98011 72.1059 10.0172V10.1085V10.1699V10.2469C72.0931 10.3182 72.056 10.4438 71.9347 10.5379C71.7664 10.6706 71.5381 10.6621 71.4496 10.6535H69.2911C68.9473 10.6506 68.2639 10.692 67.6961 11.0943C67.0584 11.5466 66.9214 12.2057 66.8843 12.501V12.6309L66.8972 16.4029V16.4828C66.9072 16.9836 67.2253 17.5557 67.7332 17.9694C68.2896 18.4245 68.8403 18.4987 68.9516 18.513H74.1817C74.3543 18.5158 74.7624 18.4987 75.0634 18.2333C75.313 18.0151 75.3701 17.7326 75.3872 17.5842V17.4544L75.363 9.71761V9.71618ZM72.1216 15.5227C72.1216 15.7167 71.9647 15.8737 71.7706 15.8737H70.3739C70.1799 15.8737 70.023 15.7167 70.023 15.5227V13.6466C70.023 13.4526 70.1799 13.2957 70.3739 13.2957H71.7706C71.9647 13.2957 72.1216 13.4526 72.1216 13.6466V15.5227Z" fill="white"/>
<path d="M55.1487 6.89571H49.4164C49.2224 6.89571 49.0654 7.05265 49.0654 7.24667V18.1635C49.0654 18.3575 49.2224 18.5144 49.4164 18.5144H51.9758C52.1698 18.5144 52.3268 18.3575 52.3268 18.1621L52.3025 9.91453C52.3025 9.7205 52.4595 9.56214 52.6535 9.56214H54.1629C54.3569 9.56214 54.5153 9.71908 54.5138 9.9131C54.5067 11.3783 54.481 16.9893 54.4739 18.1621C54.4739 18.3561 54.6308 18.513 54.8249 18.513H57.4C57.594 18.513 57.7509 18.3561 57.7509 18.1621L57.731 9.47226C57.7281 8.04845 56.5725 6.89429 55.1473 6.89429L55.1487 6.89571Z" fill="white"/>
<path d="M89.3856 6.88574H86.5807C86.4633 6.88574 86.3682 6.98091 86.3682 7.09831V14.6824C86.3682 14.7998 86.4633 14.895 86.5807 14.895H89.3856C89.503 14.895 89.5981 14.7998 89.5981 14.6824V7.09831C89.5981 6.98091 89.503 6.88574 89.3856 6.88574Z" fill="white"/>
<path d="M89.3856 15.8652H86.5807C86.4633 15.8652 86.3682 15.9604 86.3682 16.0778V18.2891C86.3682 18.4065 86.4633 18.5017 86.5807 18.5017H89.3856C89.503 18.5017 89.5981 18.4065 89.5981 18.2891V16.0778C89.5981 15.9604 89.503 15.8652 89.3856 15.8652Z" fill="white"/>
</svg>
